<svg xmlns="http://www.w3.org/2000/svg" xmlns:xlink="http://www.w3.org/1999/xlink" width="500" zoomAndPan="magnify" viewBox="0 0 375 374.999991" height="500" preserveAspectRatio="xMidYMid meet" version="1.0"><defs><g/><clipPath id="f914bbde1a"><path d="M 256 149 L 267 149 L 267 159 L 256 159 Z M 256 149 " clip-rule="nonzero"/></clipPath><clipPath id="431bc55c6e"><path d="M 260.929688 158.414062 L 264.597656 157.503906 C 264.769531 157.460938 264.910156 157.34375 264.980469 157.179688 L 266.644531 153.273438 C 266.761719 152.996094 266.636719 152.671875 266.371094 152.546875 C 264.429688 151.628906 261.855469 150.582031 259 149.816406 C 258.714844 149.742188 258.425781 149.894531 258.324219 150.167969 L 256.9375 154.058594 C 256.886719 154.210938 256.894531 154.378906 256.972656 154.515625 L 258.621094 157.546875 C 258.6875 157.667969 258.796875 157.765625 258.933594 157.808594 L 260.625 158.394531 C 260.714844 158.4375 260.828125 158.4375 260.929688 158.414062 Z M 260.929688 158.414062 " clip-rule="nonzero"/></clipPath><linearGradient x1="-1054.718058" gradientTransform="matrix(-0.072332, 0, 0, 0.072332, 190.47018, 95.659578)" y1="808.16199" x2="-918.218058" gradientUnits="userSpaceOnUse" y2="808.16199" id="b3377eee65"><stop stop-opacity="1" stop-color="rgb(92.89856%, 10.998535%, 14.099121%)" offset="0"/><stop stop-opacity="1" stop-color="rgb(92.826843%, 11.009216%, 14.10675%)" offset="0.015625"/><stop stop-opacity="1" stop-color="rgb(92.610168%, 11.042786%, 14.128113%)" offset="0.03125"/><stop stop-opacity="1" stop-color="rgb(92.318726%, 11.088562%, 14.15863%)" offset="0.046875"/><stop stop-opacity="1" stop-color="rgb(92.027283%, 11.132812%, 14.187622%)" offset="0.0625"/><stop stop-opacity="1" stop-color="rgb(91.73584%, 11.177063%, 14.21814%)" offset="0.078125"/><stop stop-opacity="1" stop-color="rgb(91.444397%, 11.222839%, 14.248657%)" offset="0.09375"/><stop stop-opacity="1" stop-color="rgb(91.15448%, 11.26709%, 14.277649%)" offset="0.109375"/><stop stop-opacity="1" stop-color="rgb(90.863037%, 11.31134%, 14.308167%)" offset="0.125"/><stop stop-opacity="1" stop-color="rgb(90.571594%, 11.357117%, 14.337158%)" offset="0.140625"/><stop stop-opacity="1" stop-color="rgb(90.280151%, 11.401367%, 14.367676%)" offset="0.15625"/><stop stop-opacity="1" stop-color="rgb(89.988708%, 11.447144%, 14.396667%)" offset="0.171875"/><stop stop-opacity="1" stop-color="rgb(89.697266%, 11.491394%, 14.427185%)" offset="0.1875"/><stop stop-opacity="1" stop-color="rgb(89.405823%, 11.535645%, 14.457703%)" offset="0.203125"/><stop stop-opacity="1" stop-color="rgb(89.11438%, 11.581421%, 14.486694%)" offset="0.21875"/><stop stop-opacity="1" stop-color="rgb(88.822937%, 11.625671%, 14.517212%)" offset="0.234375"/><stop stop-opacity="1" stop-color="rgb(88.531494%, 11.669922%, 14.546204%)" offset="0.25"/><stop stop-opacity="1" stop-color="rgb(88.240051%, 11.715698%, 14.576721%)" offset="0.265625"/><stop stop-opacity="1" stop-color="rgb(87.948608%, 11.759949%, 14.607239%)" offset="0.28125"/><stop stop-opacity="1" stop-color="rgb(87.657166%, 11.805725%, 14.63623%)" offset="0.296875"/><stop stop-opacity="1" stop-color="rgb(87.365723%, 11.849976%, 14.666748%)" offset="0.3125"/><stop stop-opacity="1" stop-color="rgb(87.07428%, 11.894226%, 14.69574%)" offset="0.328125"/><stop stop-opacity="1" stop-color="rgb(86.782837%, 11.940002%, 14.726257%)" offset="0.34375"/><stop stop-opacity="1" stop-color="rgb(86.491394%, 11.984253%, 14.756775%)" offset="0.359375"/><stop stop-opacity="1" stop-color="rgb(86.199951%, 12.030029%, 14.785767%)" offset="0.375"/><stop stop-opacity="1" stop-color="rgb(85.908508%, 12.07428%, 14.816284%)" offset="0.390625"/><stop stop-opacity="1" stop-color="rgb(85.617065%, 12.11853%, 14.845276%)" offset="0.40625"/><stop stop-opacity="1" stop-color="rgb(85.325623%, 12.164307%, 14.875793%)" offset="0.421875"/><stop stop-opacity="1" stop-color="rgb(85.070801%, 12.19635%, 14.900208%)" offset="0.4375"/><stop stop-opacity="1" stop-color="rgb(84.771729%, 12.217712%, 14.924622%)" offset="0.46875"/><stop stop-opacity="1" stop-color="rgb(84.390259%, 12.240601%, 14.955139%)" offset="0.5"/><stop stop-opacity="1" stop-color="rgb(84.008789%, 12.263489%, 14.984131%)" offset="0.53125"/><stop stop-opacity="1" stop-color="rgb(83.628845%, 12.284851%, 15.014648%)" offset="0.5625"/><stop stop-opacity="1" stop-color="rgb(83.247375%, 12.307739%, 15.04364%)" offset="0.59375"/><stop stop-opacity="1" stop-color="rgb(82.865906%, 12.330627%, 15.074158%)" offset="0.625"/><stop stop-opacity="1" stop-color="rgb(82.484436%, 12.35199%, 15.104675%)" offset="0.65625"/><stop stop-opacity="1" stop-color="rgb(82.104492%, 12.374878%, 15.133667%)" offset="0.6875"/><stop stop-opacity="1" stop-color="rgb(81.723022%, 12.397766%, 15.164185%)" offset="0.71875"/><stop stop-opacity="1" stop-color="rgb(81.341553%, 12.419128%, 15.193176%)" offset="0.75"/><stop stop-opacity="1" stop-color="rgb(80.960083%, 12.442017%, 15.223694%)" offset="0.78125"/><stop stop-opacity="1" stop-color="rgb(80.580139%, 12.464905%, 15.252686%)" offset="0.8125"/><stop stop-opacity="1" stop-color="rgb(80.194092%, 12.487793%, 15.283203%)" offset="0.875"/><stop stop-opacity="1" stop-color="rgb(79.998779%, 12.5%, 15.299988%)" offset="1"/></linearGradient><clipPath id="b27373e6af"><path d="M 248 159 L 278 159 L 278 198.894531 L 248 198.894531 Z M 248 159 " clip-rule="nonzero"/></clipPath><clipPath id="9b3d4d1be7"><path d="M 259.511719 178.625 L 259.136719 177.367188 C 259 176.894531 259.554688 176.535156 259.933594 176.859375 L 260.871094 177.675781 C 260.910156 177.707031 260.945312 177.734375 260.988281 177.75 C 261.109375 177.808594 261.398438 177.914062 261.886719 177.914062 C 262.28125 177.914062 262.730469 177.84375 263.222656 177.691406 L 263.605469 177.574219 C 263.875 177.496094 264.15625 177.65625 264.222656 177.929688 L 265.226562 181.988281 C 265.277344 182.183594 265.199219 182.394531 265.03125 182.507812 L 264.8125 182.660156 C 264.191406 183.09375 263.578125 183.570312 263.0625 184.011719 C 262.714844 184.308594 262.917969 184.882812 263.375 184.882812 L 263.390625 184.882812 C 264.316406 184.882812 264.792969 184.824219 264.800781 184.824219 L 265.132812 184.785156 C 265.378906 184.757812 265.601562 184.917969 265.667969 185.15625 L 265.746094 185.480469 L 268.988281 198.542969 C 271.707031 198.523438 274.476562 198.8125 277.25 199.109375 C 276.226562 197.511719 274.320312 191.855469 271.9375 184.65625 C 270.941406 181.640625 270.085938 179.035156 269.738281 178.253906 L 269.542969 177.800781 C 269.414062 177.503906 269.601562 177.171875 269.921875 177.121094 L 270.253906 177.070312 C 270.3125 177.0625 270.375 177.039062 270.425781 177.011719 C 270.898438 176.714844 272.003906 175.59375 273.054688 174.4375 C 273.203125 174.269531 273.21875 174.023438 273.097656 173.835938 L 272.632812 173.140625 L 272.632812 172.882812 C 272.632812 172.875 272.574219 171.484375 271.96875 171.484375 C 271.875 171.484375 271.765625 171.5 271.640625 171.535156 L 270.738281 171.8125 C 270.3125 171.941406 269.949219 171.484375 270.167969 171.101562 L 270.636719 170.277344 C 271.308594 169.089844 271.648438 167.753906 271.460938 167.5 C 271.460938 167.5 271.390625 167.457031 271.179688 167.457031 C 271.011719 167.457031 270.703125 167.484375 270.226562 167.628906 C 265.871094 168.9375 264.582031 169.257812 264.53125 169.273438 L 263.832031 169.445312 C 263.449219 169.539062 263.113281 169.164062 263.253906 168.792969 L 263.503906 168.113281 C 263.722656 167.542969 264.191406 165.71875 263.585938 164.851562 C 263.492188 164.714844 263.195312 164.300781 262.125 164.300781 C 261.796875 164.300781 261.4375 164.339844 261.03125 164.417969 L 260.375 164.542969 C 259.996094 164.613281 259.6875 164.246094 259.824219 163.890625 L 260.757812 161.386719 C 260.859375 161.121094 260.714844 160.824219 260.4375 160.742188 C 259.15625 160.375 257.835938 160.101562 256.511719 159.839844 C 256.265625 159.789062 256.019531 159.933594 255.945312 160.171875 L 253.210938 168.925781 C 253.160156 169.089844 253.03125 169.214844 252.863281 169.257812 L 249.292969 170.140625 C 249.105469 170.183594 248.960938 170.34375 248.921875 170.53125 L 248.429688 173.292969 C 248.410156 173.429688 248.4375 173.566406 248.523438 173.675781 L 250.28125 175.976562 C 250.398438 176.136719 250.601562 176.203125 250.789062 176.15625 L 255.644531 174.949219 C 255.886719 174.890625 256.132812 175.023438 256.222656 175.261719 L 256.335938 175.585938 C 256.519531 176.085938 258.101562 180.542969 257.609375 182.847656 C 257.539062 183.195312 257.464844 183.507812 257.394531 183.78125 C 257.320312 184.09375 257.234375 184.433594 257.203125 184.671875 L 257.242188 184.671875 C 257.378906 184.664062 257.929688 184.390625 258.542969 183.535156 C 259.375 182.378906 260.0625 180.484375 259.511719 178.625 Z M 259.511719 178.625 " clip-rule="nonzero"/></clipPath><linearGradient x1="-895.680279" gradientTransform="matrix(-0.072332, 0, 0, 0.072332, 190.47018, 95.659578)" y1="852.771371" x2="-1112.149056" gradientUnits="userSpaceOnUse" y2="1458.517324" id="1400d59d1b"><stop stop-opacity="1" stop-color="rgb(0%, 0%, 0%)" offset="0"/><stop stop-opacity="1" stop-color="rgb(0%, 0%, 0%)" offset="0.015625"/><stop stop-opacity="1" stop-color="rgb(0%, 0%, 0%)" offset="0.0234375"/><stop stop-opacity="1" stop-color="rgb(1.741028%, 1.741028%, 1.741028%)" offset="0.0273438"/><stop stop-opacity="1" stop-color="rgb(3.483582%, 3.483582%, 3.483582%)" offset="0.03125"/><stop stop-opacity="1" stop-color="rgb(5.493164%, 5.493164%, 5.493164%)" offset="0.0351562"/><stop stop-opacity="1" stop-color="rgb(7.504272%, 7.504272%, 7.504272%)" offset="0.0390625"/><stop stop-opacity="1" stop-color="rgb(9.513855%, 9.513855%, 9.513855%)" offset="0.0429688"/><stop stop-opacity="1" stop-color="rgb(11.523438%, 11.523438%, 11.523438%)" offset="0.046875"/><stop stop-opacity="1" stop-color="rgb(13.53302%, 13.53302%, 13.53302%)" offset="0.0507812"/><stop stop-opacity="1" stop-color="rgb(15.542603%, 15.542603%, 15.542603%)" offset="0.0546875"/><stop stop-opacity="1" stop-color="rgb(17.552185%, 17.552185%, 17.552185%)" offset="0.0585938"/><stop stop-opacity="1" stop-color="rgb(19.561768%, 19.561768%, 19.561768%)" offset="0.0625"/><stop stop-opacity="1" stop-color="rgb(21.382141%, 21.382141%, 21.382141%)" offset="0.0664062"/><stop stop-opacity="1" stop-color="rgb(23.202515%, 23.202515%, 23.202515%)" offset="0.0703125"/><stop stop-opacity="1" stop-color="rgb(24.829102%, 24.829102%, 24.829102%)" offset="0.0742188"/><stop stop-opacity="1" stop-color="rgb(26.455688%, 26.455688%, 26.455688%)" offset="0.078125"/><stop stop-opacity="1" stop-color="rgb(28.08075%, 28.08075%, 28.08075%)" offset="0.0820312"/><stop stop-opacity="1" stop-color="rgb(29.707336%, 29.707336%, 29.707336%)" offset="0.0859375"/><stop stop-opacity="1" stop-color="rgb(31.332397%, 31.332397%, 31.332397%)" offset="0.0898438"/><stop stop-opacity="1" stop-color="rgb(32.958984%, 32.958984%, 32.958984%)" offset="0.09375"/><stop stop-opacity="1" stop-color="rgb(34.585571%, 34.585571%, 34.585571%)" offset="0.0976562"/><stop stop-opacity="1" stop-color="rgb(36.212158%, 36.212158%, 36.212158%)" offset="0.101562"/><stop stop-opacity="1" stop-color="rgb(37.754822%, 37.754822%, 37.754822%)" offset="0.105469"/><stop stop-opacity="1" stop-color="rgb(39.297485%, 39.297485%, 39.297485%)" offset="0.109375"/><stop stop-opacity="1" stop-color="rgb(40.66925%, 40.66925%, 40.66925%)" offset="0.113281"/><stop stop-opacity="1" stop-color="rgb(42.041016%, 42.041016%, 42.041016%)" offset="0.117188"/><stop stop-opacity="1" stop-color="rgb(43.412781%, 43.412781%, 43.412781%)" offset="0.121094"/><stop stop-opacity="1" stop-color="rgb(44.784546%, 44.784546%, 44.784546%)" offset="0.125"/><stop stop-opacity="1" stop-color="rgb(46.156311%, 46.156311%, 46.156311%)" offset="0.128906"/><stop stop-opacity="1" stop-color="rgb(47.528076%, 47.528076%, 47.528076%)" offset="0.132812"/><stop stop-opacity="1" stop-color="rgb(48.899841%, 48.899841%, 48.899841%)" offset="0.136719"/><stop stop-opacity="1" stop-color="rgb(50.273132%, 50.273132%, 50.273132%)" offset="0.140625"/><stop stop-opacity="1" stop-color="rgb(51.644897%, 51.644897%, 51.644897%)" offset="0.144531"/><stop stop-opacity="1" stop-color="rgb(53.016663%, 53.016663%, 53.016663%)" offset="0.148438"/><stop stop-opacity="1" stop-color="rgb(54.10614%, 54.10614%, 54.10614%)" offset="0.152344"/><stop stop-opacity="1" stop-color="rgb(55.195618%, 55.195618%, 55.195618%)" offset="0.15625"/><stop stop-opacity="1" stop-color="rgb(56.251526%, 56.251526%, 56.251526%)" offset="0.160156"/><stop stop-opacity="1" stop-color="rgb(57.30896%, 57.30896%, 57.30896%)" offset="0.164062"/><stop stop-opacity="1" stop-color="rgb(58.366394%, 58.366394%, 58.366394%)" offset="0.167969"/><stop stop-opacity="1" stop-color="rgb(59.423828%, 59.423828%, 59.423828%)" offset="0.171875"/><stop stop-opacity="1" stop-color="rgb(60.479736%, 60.479736%, 60.479736%)" offset="0.175781"/><stop stop-opacity="1" stop-color="rgb(61.53717%, 61.53717%, 61.53717%)" offset="0.179688"/><stop stop-opacity="1" stop-color="rgb(62.593079%, 62.593079%, 62.593079%)" offset="0.183594"/><stop stop-opacity="1" stop-color="rgb(63.650513%, 63.650513%, 63.650513%)" offset="0.1875"/><stop stop-opacity="1" stop-color="rgb(64.707947%, 64.707947%, 64.707947%)" offset="0.191406"/><stop stop-opacity="1" stop-color="rgb(65.765381%, 65.765381%, 65.765381%)" offset="0.195312"/><stop stop-opacity="1" stop-color="rgb(66.625977%, 66.625977%, 66.625977%)" offset="0.199219"/><stop stop-opacity="1" stop-color="rgb(67.486572%, 67.486572%, 67.486572%)" offset="0.203125"/><stop stop-opacity="1" stop-color="rgb(68.333435%, 68.333435%, 68.333435%)" offset="0.207031"/><stop stop-opacity="1" stop-color="rgb(69.181824%, 69.181824%, 69.181824%)" offset="0.210938"/><stop stop-opacity="1" stop-color="rgb(70.028687%, 70.028687%, 70.028687%)" offset="0.214844"/><stop stop-opacity="1" stop-color="rgb(70.875549%, 70.875549%, 70.875549%)" offset="0.21875"/><stop stop-opacity="1" stop-color="rgb(71.722412%, 71.722412%, 71.722412%)" offset="0.222656"/><stop stop-opacity="1" stop-color="rgb(72.570801%, 72.570801%, 72.570801%)" offset="0.226562"/><stop stop-opacity="1" stop-color="rgb(73.417664%, 73.417664%, 73.417664%)" offset="0.230469"/><stop stop-opacity="1" stop-color="rgb(74.266052%, 74.266052%, 74.266052%)" offset="0.234375"/><stop stop-opacity="1" stop-color="rgb(75.112915%, 75.112915%, 75.112915%)" offset="0.238281"/><stop stop-opacity="1" stop-color="rgb(75.961304%, 75.961304%, 75.961304%)" offset="0.242188"/><stop stop-opacity="1" stop-color="rgb(76.689148%, 76.689148%, 76.689148%)" offset="0.246094"/><stop stop-opacity="1" stop-color="rgb(77.416992%, 77.416992%, 77.416992%)" offset="0.25"/><stop stop-opacity="1" stop-color="rgb(77.996826%, 77.996826%, 77.996826%)" offset="0.253906"/><stop stop-opacity="1" stop-color="rgb(78.57666%, 78.57666%, 78.57666%)" offset="0.257812"/><stop stop-opacity="1" stop-color="rgb(79.156494%, 79.156494%, 79.156494%)" offset="0.261719"/><stop stop-opacity="1" stop-color="rgb(79.736328%, 79.736328%, 79.736328%)" offset="0.265625"/><stop stop-opacity="1" stop-color="rgb(80.314636%, 80.314636%, 80.314636%)" offset="0.269531"/><stop stop-opacity="1" stop-color="rgb(80.89447%, 80.89447%, 80.89447%)" offset="0.273438"/><stop stop-opacity="1" stop-color="rgb(81.474304%, 81.474304%, 81.474304%)" offset="0.277344"/><stop stop-opacity="1" stop-color="rgb(82.054138%, 82.054138%, 82.054138%)" offset="0.28125"/><stop stop-opacity="1" stop-color="rgb(82.633972%, 82.633972%, 82.633972%)" offset="0.285156"/><stop stop-opacity="1" stop-color="rgb(83.213806%, 83.213806%, 83.213806%)" offset="0.289063"/><stop stop-opacity="1" stop-color="rgb(83.79364%, 83.79364%, 83.79364%)" offset="0.292969"/><stop stop-opacity="1" stop-color="rgb(84.373474%, 84.373474%, 84.373474%)" offset="0.296875"/><stop stop-opacity="1" stop-color="rgb(84.947205%, 84.947205%, 84.947205%)" offset="0.300781"/><stop stop-opacity="1" stop-color="rgb(85.520935%, 85.520935%, 85.520935%)" offset="0.304688"/><stop stop-opacity="1" stop-color="rgb(85.903931%, 85.903931%, 85.903931%)" offset="0.308594"/><stop stop-opacity="1" stop-color="rgb(86.288452%, 86.288452%, 86.288452%)" offset="0.3125"/><stop stop-opacity="1" stop-color="rgb(86.671448%, 86.671448%, 86.671448%)" offset="0.316406"/><stop stop-opacity="1" stop-color="rgb(87.054443%, 87.054443%, 87.054443%)" offset="0.320313"/><stop stop-opacity="1" stop-color="rgb(87.437439%, 87.437439%, 87.437439%)" offset="0.324219"/><stop stop-opacity="1" stop-color="rgb(87.820435%, 87.820435%, 87.820435%)" offset="0.328125"/><stop stop-opacity="1" stop-color="rgb(88.20343%, 88.20343%, 88.20343%)" offset="0.332031"/><stop stop-opacity="1" stop-color="rgb(88.587952%, 88.587952%, 88.587952%)" offset="0.335938"/><stop stop-opacity="1" stop-color="rgb(88.970947%, 88.970947%, 88.970947%)" offset="0.339844"/><stop stop-opacity="1" stop-color="rgb(89.353943%, 89.353943%, 89.353943%)" offset="0.34375"/><stop stop-opacity="1" stop-color="rgb(89.736938%, 89.736938%, 89.736938%)" offset="0.347656"/><stop stop-opacity="1" stop-color="rgb(90.119934%, 90.119934%, 90.119934%)" offset="0.351563"/><stop stop-opacity="1" stop-color="rgb(90.50293%, 90.50293%, 90.50293%)" offset="0.355469"/><stop stop-opacity="1" stop-color="rgb(90.885925%, 90.885925%, 90.885925%)" offset="0.359375"/><stop stop-opacity="1" stop-color="rgb(91.268921%, 91.268921%, 91.268921%)" offset="0.363281"/><stop stop-opacity="1" stop-color="rgb(91.653442%, 91.653442%, 91.653442%)" offset="0.367188"/><stop stop-opacity="1" stop-color="rgb(91.984558%, 91.984558%, 91.984558%)" offset="0.371094"/><stop stop-opacity="1" stop-color="rgb(92.315674%, 92.315674%, 92.315674%)" offset="0.375"/><stop stop-opacity="1" stop-color="rgb(92.518616%, 92.518616%, 92.518616%)" offset="0.378906"/><stop stop-opacity="1" stop-color="rgb(92.721558%, 92.721558%, 92.721558%)" offset="0.382813"/><stop stop-opacity="1" stop-color="rgb(92.9245%, 92.9245%, 92.9245%)" offset="0.386719"/><stop stop-opacity="1" stop-color="rgb(93.127441%, 93.127441%, 93.127441%)" offset="0.390625"/><stop stop-opacity="1" stop-color="rgb(93.330383%, 93.330383%, 93.330383%)" offset="0.394531"/><stop stop-opacity="1" stop-color="rgb(93.533325%, 93.533325%, 93.533325%)" offset="0.398438"/><stop stop-opacity="1" stop-color="rgb(93.736267%, 93.736267%, 93.736267%)" offset="0.402344"/><stop stop-opacity="1" stop-color="rgb(93.939209%, 93.939209%, 93.939209%)" offset="0.40625"/><stop stop-opacity="1" stop-color="rgb(94.142151%, 94.142151%, 94.142151%)" offset="0.410156"/><stop stop-opacity="1" stop-color="rgb(94.345093%, 94.345093%, 94.345093%)" offset="0.414063"/><stop stop-opacity="1" stop-color="rgb(94.548035%, 94.548035%, 94.548035%)" offset="0.417969"/><stop stop-opacity="1" stop-color="rgb(94.750977%, 94.750977%, 94.750977%)" offset="0.421875"/><stop stop-opacity="1" stop-color="rgb(94.953918%, 94.953918%, 94.953918%)" offset="0.425781"/><stop stop-opacity="1" stop-color="rgb(95.15686%, 95.15686%, 95.15686%)" offset="0.429688"/><stop stop-opacity="1" stop-color="rgb(95.359802%, 95.359802%, 95.359802%)" offset="0.433594"/><stop stop-opacity="1" stop-color="rgb(95.562744%, 95.562744%, 95.562744%)" offset="0.4375"/><stop stop-opacity="1" stop-color="rgb(95.765686%, 95.765686%, 95.765686%)" offset="0.441406"/><stop stop-opacity="1" stop-color="rgb(95.968628%, 95.968628%, 95.968628%)" offset="0.445313"/><stop stop-opacity="1" stop-color="rgb(96.17157%, 96.17157%, 96.17157%)" offset="0.449219"/><stop stop-opacity="1" stop-color="rgb(96.374512%, 96.374512%, 96.374512%)" offset="0.453125"/><stop stop-opacity="1" stop-color="rgb(96.498108%, 96.498108%, 96.498108%)" offset="0.460938"/><stop stop-opacity="1" stop-color="rgb(96.713257%, 96.713257%, 96.713257%)" offset="0.46875"/><stop stop-opacity="1" stop-color="rgb(96.984863%, 96.984863%, 96.984863%)" offset="0.484375"/><stop stop-opacity="1" stop-color="rgb(97.344971%, 97.344971%, 97.344971%)" offset="0.5"/><stop stop-opacity="1" stop-color="rgb(97.706604%, 97.706604%, 97.706604%)" offset="0.515625"/><stop stop-opacity="1" stop-color="rgb(98.066711%, 98.066711%, 98.066711%)" offset="0.53125"/><stop stop-opacity="1" stop-color="rgb(98.426819%, 98.426819%, 98.426819%)" offset="0.546875"/><stop stop-opacity="1" stop-color="rgb(98.788452%, 98.788452%, 98.788452%)" offset="0.5625"/><stop stop-opacity="1" stop-color="rgb(99.14856%, 99.14856%, 99.14856%)" offset="0.625"/><stop stop-opacity="1" stop-color="rgb(99.481201%, 99.481201%, 99.481201%)" offset="0.75"/><stop stop-opacity="1" stop-color="rgb(99.816895%, 99.816895%, 99.816895%)" offset="0.791424"/><stop stop-opacity="1" stop-color="rgb(100%, 100%, 100%)" offset="1"/></linearGradient><clipPath id="291c026cc4"><path d="M 155 163 L 247 163 L 247 175 L 155 175 Z M 155 163 " clip-rule="nonzero"/></clipPath><clipPath id="e82ee5d375"><path d="M 246.304688 174.625 C 246.304688 174.625 237.328125 169.410156 224.972656 169.523438 C 212.621094 169.640625 176.578125 172.042969 162.738281 166.007812 C 162.738281 166.007812 170.925781 164.164062 179.550781 164.238281 C 179.550781 164.238281 169.597656 162.277344 155.671875 166.117188 C 155.671875 166.117188 164.671875 170.269531 177.125 171.917969 C 189.582031 173.574219 213.089844 172.496094 220.574219 171.722656 C 228.0625 170.957031 241.226562 172.433594 246.304688 174.625 Z M 246.304688 174.625 " clip-rule="nonzero"/></clipPath><linearGradient x1="1103.475027" gradientTransform="matrix(0.0723103, 0.00177101, -0.00177101, 0.0723103, 78.337314, 94.671078)" y1="834.727508" x2="2323.703799" gradientUnits="userSpaceOnUse" y2="1169.407211" id="ba995a8496"><stop stop-opacity="1" stop-color="rgb(91.389465%, 11.231995%, 14.254761%)" offset="0"/><stop stop-opacity="1" stop-color="rgb(91.229248%, 11.256409%, 14.27002%)" offset="0.015625"/><stop stop-opacity="1" stop-color="rgb(90.908813%, 11.305237%, 14.303589%)" offset="0.03125"/><stop stop-opacity="1" stop-color="rgb(90.589905%, 11.354065%, 14.335632%)" offset="0.0420872"/><stop stop-opacity="1" stop-color="rgb(90.431213%, 11.378479%, 14.352417%)" offset="0.046875"/><stop stop-opacity="1" stop-color="rgb(90.270996%, 11.402893%, 14.367676%)" offset="0.0625"/><stop stop-opacity="1" stop-color="rgb(89.950562%, 11.453247%, 14.401245%)" offset="0.078125"/><stop stop-opacity="1" stop-color="rgb(89.631653%, 11.502075%, 14.433289%)" offset="0.09375"/><stop stop-opacity="1" stop-color="rgb(89.312744%, 11.550903%, 14.466858%)" offset="0.109375"/><stop stop-opacity="1" stop-color="rgb(88.99231%, 11.599731%, 14.498901%)" offset="0.125"/><stop stop-opacity="1" stop-color="rgb(88.673401%, 11.64856%, 14.532471%)" offset="0.140625"/><stop stop-opacity="1" stop-color="rgb(88.352966%, 11.698914%, 14.564514%)" offset="0.15625"/><stop stop-opacity="1" stop-color="rgb(88.034058%, 11.747742%, 14.598083%)" offset="0.171875"/><stop stop-opacity="1" stop-color="rgb(87.715149%, 11.79657%, 14.630127%)" offset="0.1875"/><stop stop-opacity="1" stop-color="rgb(87.394714%, 11.845398%, 14.663696%)" offset="0.203125"/><stop stop-opacity="1" stop-color="rgb(87.075806%, 11.894226%, 14.69574%)" offset="0.21875"/><stop stop-opacity="1" stop-color="rgb(86.756897%, 11.94458%, 14.729309%)" offset="0.234375"/><stop stop-opacity="1" stop-color="rgb(86.436462%, 11.993408%, 14.761353%)" offset="0.25"/><stop stop-opacity="1" stop-color="rgb(86.117554%, 12.042236%, 14.794922%)" offset="0.265625"/><stop stop-opacity="1" stop-color="rgb(85.797119%, 12.091064%, 14.826965%)" offset="0.28125"/><stop stop-opacity="1" stop-color="rgb(85.47821%, 12.141418%, 14.860535%)" offset="0.296875"/><stop stop-opacity="1" stop-color="rgb(85.176086%, 12.184143%, 14.891052%)" offset="0.3125"/><stop stop-opacity="1" stop-color="rgb(84.928894%, 12.208557%, 14.912415%)" offset="0.328125"/><stop stop-opacity="1" stop-color="rgb(84.719849%, 12.220764%, 14.927673%)" offset="0.34375"/><stop stop-opacity="1" stop-color="rgb(84.510803%, 12.234497%, 14.944458%)" offset="0.359375"/><stop stop-opacity="1" stop-color="rgb(84.301758%, 12.246704%, 14.961243%)" offset="0.375"/><stop stop-opacity="1" stop-color="rgb(84.092712%, 12.258911%, 14.978027%)" offset="0.390625"/><stop stop-opacity="1" stop-color="rgb(83.885193%, 12.271118%, 14.993286%)" offset="0.40625"/><stop stop-opacity="1" stop-color="rgb(83.676147%, 12.283325%, 15.010071%)" offset="0.421875"/><stop stop-opacity="1" stop-color="rgb(83.467102%, 12.295532%, 15.026855%)" offset="0.4375"/><stop stop-opacity="1" stop-color="rgb(83.258057%, 12.307739%, 15.04364%)" offset="0.453125"/><stop stop-opacity="1" stop-color="rgb(83.049011%, 12.319946%, 15.058899%)" offset="0.46875"/><stop stop-opacity="1" stop-color="rgb(82.839966%, 12.332153%, 15.075684%)" offset="0.484375"/><stop stop-opacity="1" stop-color="rgb(82.63092%, 12.34436%, 15.092468%)" offset="0.5"/><stop stop-opacity="1" stop-color="rgb(82.421875%, 12.356567%, 15.109253%)" offset="0.515625"/><stop stop-opacity="1" stop-color="rgb(82.21283%, 12.368774%, 15.124512%)" offset="0.53125"/><stop stop-opacity="1" stop-color="rgb(82.003784%, 12.380981%, 15.141296%)" offset="0.546875"/><stop stop-opacity="1" stop-color="rgb(81.796265%, 12.393188%, 15.158081%)" offset="0.5625"/><stop stop-opacity="1" stop-color="rgb(81.587219%, 12.405396%, 15.174866%)" offset="0.578125"/><stop stop-opacity="1" stop-color="rgb(81.378174%, 12.417603%, 15.190125%)" offset="0.59375"/><stop stop-opacity="1" stop-color="rgb(81.169128%, 12.42981%, 15.206909%)" offset="0.609375"/><stop stop-opacity="1" stop-color="rgb(80.960083%, 12.442017%, 15.223694%)" offset="0.625"/><stop stop-opacity="1" stop-color="rgb(80.751038%, 12.454224%, 15.238953%)" offset="0.640625"/><stop stop-opacity="1" stop-color="rgb(80.541992%, 12.467957%, 15.255737%)" offset="0.65625"/><stop stop-opacity="1" stop-color="rgb(80.332947%, 12.480164%, 15.272522%)" offset="0.671875"/><stop stop-opacity="1" stop-color="rgb(80.123901%, 12.492371%, 15.289307%)" offset="0.6875"/><stop stop-opacity="1" stop-color="rgb(80.00946%, 12.498474%, 15.298462%)" offset="0.75"/><stop stop-opacity="1" stop-color="rgb(79.998779%, 12.5%, 15.299988%)" offset="0.957913"/><stop stop-opacity="1" stop-color="rgb(79.998779%, 12.5%, 15.299988%)" offset="1"/></linearGradient><clipPath id="b5fbc12eb8"><path d="M 98 136 L 280.773438 136 L 280.773438 198.894531 L 98 198.894531 Z M 98 136 " clip-rule="nonzero"/></clipPath></defs><path fill="#ed2224" d="M 260.726562 158.796875 L 265.269531 157.667969 C 265.480469 157.617188 265.652344 157.46875 265.738281 157.265625 L 267.800781 152.425781 C 267.945312 152.078125 267.792969 151.6875 267.453125 151.523438 C 265.046875 150.386719 261.855469 149.078125 258.3125 148.136719 C 257.964844 148.042969 257.601562 148.238281 257.480469 148.578125 L 255.757812 153.402344 C 255.691406 153.589844 255.707031 153.792969 255.800781 153.964844 L 257.847656 157.726562 C 257.929688 157.878906 258.066406 157.996094 258.230469 158.054688 L 260.328125 158.777344 C 260.460938 158.828125 260.597656 158.835938 260.726562 158.796875 Z M 260.726562 158.796875 " fill-opacity="1" fill-rule="nonzero"/><g clip-path="url(#f914bbde1a)"><g clip-path="url(#431bc55c6e)"><path fill="url(#b3377eee65)" d="M 266.761719 149.742188 L 266.761719 158.4375 L 256.886719 158.4375 L 256.886719 149.742188 Z M 266.761719 149.742188 " fill-rule="nonzero"/></g></g><g clip-path="url(#b27373e6af)"><g clip-path="url(#9b3d4d1be7)"><path fill="url(#1400d59d1b)" d="M 277.25 159.789062 L 277.25 198.894531 L 248.410156 198.894531 L 248.410156 159.789062 Z M 277.25 159.789062 " fill-rule="nonzero"/></g></g><path fill="#242424" d="M 208.917969 167.816406 C 203.976562 163.890625 193.363281 157.914062 173.074219 155.832031 L 177.199219 157.921875 C 177.199219 157.921875 160.554688 155.269531 144.222656 159.601562 C 127.898438 163.925781 122.191406 167.414062 109.820312 165.460938 C 109.820312 165.460938 138.355469 173.972656 167.996094 172.859375 C 167.996094 172.859375 142.160156 170.203125 135.660156 166.300781 C 135.660156 166.300781 153.574219 159.179688 175.289062 160.859375 C 187.707031 161.8125 196.75 165.234375 202.226562 167.992188 C 204.445312 167.847656 206.695312 167.925781 208.917969 167.816406 Z M 208.917969 167.816406 " fill-opacity="1" fill-rule="nonzero"/><path fill="#242424" d="M 240.078125 176.953125 C 240.078125 176.953125 240.707031 179.449219 240.714844 179.464844 C 240.503906 178.644531 237.582031 177.292969 236.902344 176.96875 C 233.929688 175.527344 230.363281 175.101562 227.09375 174.972656 C 225.640625 174.914062 224.179688 174.929688 222.722656 174.992188 C 229.949219 175.976562 237.546875 178.378906 241.449219 182.253906 C 247.15625 187.933594 249.058594 191.933594 249.058594 191.933594 C 249.058594 191.933594 249.269531 183.933594 240.078125 176.953125 Z M 240.078125 176.953125 " fill-opacity="1" fill-rule="nonzero"/><path fill="#242424" d="M 126.542969 172.15625 C 126.542969 172.15625 100.867188 167.203125 100.070312 167.066406 L 107.761719 171.464844 C 94.023438 183.09375 100.070312 191.933594 100.070312 191.933594 C 99.992188 170.8125 126.542969 172.15625 126.542969 172.15625 Z M 126.542969 172.15625 " fill-opacity="1" fill-rule="nonzero"/><path fill="#242424" d="M 235.214844 186.347656 C 231.410156 181.699219 224.757812 179.558594 217.566406 181.046875 C 210.378906 182.539062 207 190.167969 207 190.167969 C 207 190.167969 165.148438 188.867188 155.636719 186.914062 C 146.125 184.960938 141.371094 178.726562 141.371094 178.726562 C 154.847656 182.074219 173.074219 180.195312 173.074219 180.195312 C 173.074219 180.195312 173.074219 180.195312 163.644531 179.507812 C 154.210938 178.820312 149.0625 177.894531 148.664062 177.820312 C 148.265625 177.75 154.6875 177.191406 154.6875 177.191406 C 154.6875 177.191406 153.8125 177.191406 149.539062 176.5625 C 145.257812 175.933594 133.371094 173.886719 133.371094 173.886719 C 140.179688 175.601562 148.027344 189.183594 148.027344 189.183594 C 148.027344 189.183594 148.027344 189.183594 144.0625 189.046875 C 140.097656 188.910156 136.773438 187.371094 135.660156 185.046875 C 134.550781 182.71875 126.148438 177.324219 116.953125 181.089844 C 107.761719 184.859375 109.820312 191.933594 109.820312 191.933594 C 109.820312 187.28125 115.050781 181.371094 123.933594 183.1875 C 132.808594 185.003906 134.820312 194.441406 134.820312 194.441406 L 210.066406 194.441406 L 210.914062 191.09375 C 212.816406 186.066406 222.117188 179.09375 231.628906 188.585938 C 241.140625 198.074219 248.429688 196.027344 248.429688 196.027344 C 243.035156 194.726562 239.019531 191 235.214844 186.347656 Z M 235.214844 186.347656 " fill-opacity="1" fill-rule="nonzero"/><g clip-path="url(#291c026cc4)"><g clip-path="url(#e82ee5d375)"><path fill="url(#ba995a8496)" d="M 155.726562 160.058594 L 155.371094 174.617188 L 246.25 176.84375 L 246.605469 162.285156 Z M 155.726562 160.058594 " fill-rule="nonzero"/></g></g><g clip-path="url(#b5fbc12eb8)"><path fill="#242424" d="M 279.445312 195.484375 C 279.035156 195.542969 278.015625 195.695312 276.75 195.898438 C 274.660156 190.515625 271.351562 179.753906 270.542969 177.902344 C 271.332031 177.777344 274.398438 174.21875 274.398438 174.21875 L 273.5 172.875 C 273.5 172.875 273.480469 170.074219 271.390625 170.703125 C 271.390625 170.703125 274.355469 165.480469 269.972656 166.796875 C 265.589844 168.105469 264.324219 168.425781 264.324219 168.425781 C 264.324219 168.425781 266.550781 162.488281 260.871094 163.558594 L 261.746094 161.207031 L 267.453125 159.789062 L 270.6875 152.1875 L 272.199219 148.628906 L 273.574219 148.289062 L 274.609375 145.675781 L 273.898438 142.828125 C 273.898438 142.828125 260.625 135.914062 259.519531 136.859375 C 258.40625 137.808594 257.828125 138.625 257.828125 138.625 L 256.691406 139.023438 L 255.738281 141.503906 L 256.792969 142.589844 L 255.375 146.582031 L 252.765625 153.894531 L 254.433594 156.976562 L 255.449219 158.835938 L 252.445312 168.441406 L 248.222656 169.488281 L 247.46875 173.714844 L 250.132812 177.199219 L 255.519531 175.859375 C 255.519531 175.859375 257.210938 180.511719 256.757812 182.644531 C 256.300781 184.773438 255.84375 185.5625 257.269531 185.515625 C 258.6875 185.472656 261.394531 181.886719 260.34375 178.355469 C 260.34375 178.355469 261.277344 179.175781 263.46875 178.515625 L 264.316406 181.929688 C 264.316406 181.929688 259.1875 185.523438 261.464844 185.667969 C 263.742188 185.8125 264.910156 185.675781 264.910156 185.675781 L 267.789062 197.277344 L 98.738281 199.085938 L 277.242188 199.085938 C 277.242188 199.085938 277.25 199.085938 277.25 199.085938 C 277.609375 199.125 277.972656 199.167969 278.332031 199.203125 C 278.320312 199.167969 278.289062 199.125 278.273438 199.085938 L 280.761719 199.085938 C 280.769531 199.109375 280.972656 195.28125 279.445312 195.484375 Z M 257.328125 158.652344 L 254.667969 153.75 L 257.097656 146.9375 L 258.804688 142.140625 L 257.769531 141.078125 L 258.035156 140.390625 L 258.933594 140.078125 L 259.25 139.628906 C 259.25 139.628906 259.59375 139.160156 260.234375 138.550781 C 262.035156 138.957031 267.597656 141.519531 272.410156 144 L 272.792969 145.546875 L 272.292969 146.8125 L 270.949219 147.144531 L 269.148438 151.375 L 266.195312 158.304688 L 260.445312 159.730469 Z M 257.328125 158.652344 " fill-opacity="1" fill-rule="nonzero"/></g><g fill="#000000" fill-opacity="1"><g transform="translate(132.580752, 221.663976)"><g><path d="M 0.25 0 C 0.0820312 0 0 -0.0820312 0 -0.25 L 0 -2.25 C 0 -2.414062 0.0820312 -2.5 0.25 -2.5 L 14.46875 -2.5 C 14.601562 -2.5 14.71875 -2.546875 14.8125 -2.640625 C 14.914062 -2.742188 14.96875 -2.863281 14.96875 -3 L 14.96875 -4.484375 C 14.96875 -4.617188 14.914062 -4.734375 14.8125 -4.828125 C 14.71875 -4.929688 14.601562 -4.984375 14.46875 -4.984375 L 2.546875 -4.984375 C 1.816406 -4.984375 1.207031 -5.222656 0.71875 -5.703125 C 0.238281 -6.191406 0 -6.800781 0 -7.53125 L 0 -9.9375 C 0 -10.664062 0.238281 -11.269531 0.71875 -11.75 C 1.207031 -12.238281 1.816406 -12.484375 2.546875 -12.484375 L 17.21875 -12.484375 C 17.382812 -12.484375 17.46875 -12.398438 17.46875 -12.234375 L 17.46875 -10.234375 C 17.46875 -10.066406 17.382812 -9.984375 17.21875 -9.984375 L 3 -9.984375 C 2.863281 -9.984375 2.742188 -9.929688 2.640625 -9.828125 C 2.546875 -9.734375 2.5 -9.617188 2.5 -9.484375 L 2.5 -7.984375 C 2.5 -7.847656 2.546875 -7.726562 2.640625 -7.625 C 2.742188 -7.53125 2.863281 -7.484375 3 -7.484375 L 14.921875 -7.484375 C 15.648438 -7.484375 16.253906 -7.238281 16.734375 -6.75 C 17.222656 -6.269531 17.46875 -5.664062 17.46875 -4.9375 L 17.46875 -2.546875 C 17.46875 -1.816406 17.222656 -1.207031 16.734375 -0.71875 C 16.253906 -0.238281 15.648438 0 14.921875 0 Z M 0.25 0 "/></g></g></g><g fill="#000000" fill-opacity="1"><g transform="translate(155.042129, 221.663976)"><g><path d="M 0.25 0 C 0.0820312 0 0 -0.0820312 0 -0.25 L 0 -12.234375 C 0 -12.398438 0.0820312 -12.484375 0.25 -12.484375 L 2.25 -12.484375 C 2.414062 -12.484375 2.5 -12.398438 2.5 -12.234375 L 2.5 -7.484375 L 14.96875 -7.484375 L 14.96875 -12.234375 C 14.96875 -12.398438 15.050781 -12.484375 15.21875 -12.484375 L 17.21875 -12.484375 C 17.382812 -12.484375 17.46875 -12.398438 17.46875 -12.234375 L 17.46875 -0.25 C 17.46875 -0.0820312 17.382812 0 17.21875 0 L 15.21875 0 C 15.050781 0 14.96875 -0.0820312 14.96875 -0.25 L 14.96875 -4.984375 L 2.5 -4.984375 L 2.5 -0.25 C 2.5 -0.0820312 2.414062 0 2.25 0 Z M 0.25 0 "/></g></g></g><g fill="#000000" fill-opacity="1"><g transform="translate(177.503506, 221.663976)"><g><path d="M 0.25 0 C 0.0820312 0 0 -0.0820312 0 -0.25 L 0 -9.9375 C 0 -10.664062 0.238281 -11.269531 0.71875 -11.75 C 1.207031 -12.238281 1.816406 -12.484375 2.546875 -12.484375 L 14.921875 -12.484375 C 15.648438 -12.484375 16.253906 -12.238281 16.734375 -11.75 C 17.222656 -11.269531 17.46875 -10.664062 17.46875 -9.9375 L 17.46875 -0.25 C 17.46875 -0.0820312 17.382812 0 17.21875 0 L 15.21875 0 C 15.050781 0 14.96875 -0.0820312 14.96875 -0.25 L 14.96875 -4.984375 L 2.5 -4.984375 L 2.5 -0.25 C 2.5 -0.0820312 2.414062 0 2.25 0 Z M 2.5 -7.484375 L 14.96875 -7.484375 L 14.96875 -9.484375 C 14.96875 -9.617188 14.914062 -9.734375 14.8125 -9.828125 C 14.71875 -9.929688 14.601562 -9.984375 14.46875 -9.984375 L 3 -9.984375 C 2.863281 -9.984375 2.742188 -9.929688 2.640625 -9.828125 C 2.546875 -9.734375 2.5 -9.617188 2.5 -9.484375 Z M 2.5 -7.484375 "/></g></g></g><g fill="#000000" fill-opacity="1"><g transform="translate(199.964885, 221.663976)"><g><path d="M 2.546875 0 C 1.816406 0 1.207031 -0.238281 0.71875 -0.71875 C 0.238281 -1.207031 0 -1.816406 0 -2.546875 L 0 -12.234375 C 0 -12.398438 0.0820312 -12.484375 0.25 -12.484375 L 2.25 -12.484375 C 2.414062 -12.484375 2.5 -12.398438 2.5 -12.234375 L 2.5 -3 C 2.5 -2.863281 2.546875 -2.742188 2.640625 -2.640625 C 2.742188 -2.546875 2.863281 -2.5 3 -2.5 L 17.21875 -2.5 C 17.382812 -2.5 17.46875 -2.414062 17.46875 -2.25 L 17.46875 -0.25 C 17.46875 -0.0820312 17.382812 0 17.21875 0 Z M 2.546875 0 "/></g></g></g><g fill="#000000" fill-opacity="1"><g transform="translate(222.426261, 221.663976)"><g><path d="M 0.25 0 C 0.0820312 0 0 -0.0820312 0 -0.25 L 0 -9.9375 C 0 -10.664062 0.238281 -11.269531 0.71875 -11.75 C 1.207031 -12.238281 1.816406 -12.484375 2.546875 -12.484375 L 14.921875 -12.484375 C 15.648438 -12.484375 16.253906 -12.238281 16.734375 -11.75 C 17.222656 -11.269531 17.46875 -10.664062 17.46875 -9.9375 L 17.46875 -0.25 C 17.46875 -0.0820312 17.382812 0 17.21875 0 L 15.21875 0 C 15.050781 0 14.96875 -0.0820312 14.96875 -0.25 L 14.96875 -4.984375 L 2.5 -4.984375 L 2.5 -0.25 C 2.5 -0.0820312 2.414062 0 2.25 0 Z M 2.5 -7.484375 L 14.96875 -7.484375 L 14.96875 -9.484375 C 14.96875 -9.617188 14.914062 -9.734375 14.8125 -9.828125 C 14.71875 -9.929688 14.601562 -9.984375 14.46875 -9.984375 L 3 -9.984375 C 2.863281 -9.984375 2.742188 -9.929688 2.640625 -9.828125 C 2.546875 -9.734375 2.5 -9.617188 2.5 -9.484375 Z M 2.5 -7.484375 "/></g></g></g><g fill="#000000" fill-opacity="1"><g transform="translate(130.830583, 235.894947)"><g><path d="M 0.09375 0 C 0.03125 0 0 -0.03125 0 -0.09375 L 0 -3.78125 C 0 -4.0625 0.0859375 -4.289062 0.265625 -4.46875 C 0.453125 -4.65625 0.6875 -4.75 0.96875 -4.75 L 5.6875 -4.75 C 5.96875 -4.75 6.195312 -4.65625 6.375 -4.46875 C 6.5625 -4.289062 6.65625 -4.0625 6.65625 -3.78125 L 6.65625 -0.09375 C 6.65625 -0.03125 6.625 0 6.5625 0 L 5.796875 0 C 5.734375 0 5.703125 -0.03125 5.703125 -0.09375 L 5.703125 -1.90625 L 0.953125 -1.90625 L 0.953125 -0.09375 C 0.953125 -0.03125 0.921875 0 0.859375 0 Z M 0.953125 -2.859375 L 5.703125 -2.859375 L 5.703125 -3.609375 C 5.703125 -3.660156 5.679688 -3.707031 5.640625 -3.75 C 5.609375 -3.789062 5.566406 -3.8125 5.515625 -3.8125 L 1.140625 -3.8125 C 1.085938 -3.8125 1.039062 -3.789062 1 -3.75 C 0.96875 -3.707031 0.953125 -3.660156 0.953125 -3.609375 Z M 0.953125 -2.859375 "/></g></g></g><g fill="#000000" fill-opacity="1"><g transform="translate(142.449355, 235.894947)"><g><path d="M 0.96875 0 C 0.6875 0 0.453125 -0.0859375 0.265625 -0.265625 C 0.0859375 -0.453125 0 -0.6875 0 -0.96875 L 0 -4.65625 C 0 -4.71875 0.03125 -4.75 0.09375 -4.75 L 0.859375 -4.75 C 0.921875 -4.75 0.953125 -4.71875 0.953125 -4.65625 L 0.953125 -1.140625 C 0.953125 -1.085938 0.96875 -1.039062 1 -1 C 1.039062 -0.96875 1.085938 -0.953125 1.140625 -0.953125 L 5.515625 -0.953125 C 5.566406 -0.953125 5.609375 -0.96875 5.640625 -1 C 5.679688 -1.039062 5.703125 -1.085938 5.703125 -1.140625 L 5.703125 -4.65625 C 5.703125 -4.71875 5.734375 -4.75 5.796875 -4.75 L 6.5625 -4.75 C 6.625 -4.75 6.65625 -4.71875 6.65625 -4.65625 L 6.65625 -0.96875 C 6.65625 -0.6875 6.5625 -0.453125 6.375 -0.265625 C 6.195312 -0.0859375 5.96875 0 5.6875 0 Z M 0.96875 0 "/></g></g></g><g fill="#000000" fill-opacity="1"><g transform="translate(154.068126, 235.894947)"><g><path d="M 2.953125 0 C 2.890625 0 2.859375 -0.03125 2.859375 -0.09375 L 2.859375 -3.8125 L 0.09375 -3.8125 C 0.03125 -3.8125 0 -3.84375 0 -3.90625 L 0 -4.65625 C 0 -4.71875 0.03125 -4.75 0.09375 -4.75 L 6.5625 -4.75 C 6.625 -4.75 6.65625 -4.71875 6.65625 -4.65625 L 6.65625 -3.90625 C 6.65625 -3.84375 6.625 -3.8125 6.5625 -3.8125 L 3.8125 -3.8125 L 3.8125 -0.09375 C 3.8125 -0.03125 3.78125 0 3.71875 0 Z M 2.953125 0 "/></g></g></g><g fill="#000000" fill-opacity="1"><g transform="translate(165.686898, 235.894947)"><g><path d="M 0.96875 0 C 0.6875 0 0.453125 -0.0859375 0.265625 -0.265625 C 0.0859375 -0.453125 0 -0.6875 0 -0.96875 L 0 -3.78125 C 0 -4.0625 0.0859375 -4.289062 0.265625 -4.46875 C 0.453125 -4.65625 0.6875 -4.75 0.96875 -4.75 L 5.6875 -4.75 C 5.96875 -4.75 6.195312 -4.65625 6.375 -4.46875 C 6.5625 -4.289062 6.65625 -4.0625 6.65625 -3.78125 L 6.65625 -0.96875 C 6.65625 -0.6875 6.5625 -0.453125 6.375 -0.265625 C 6.195312 -0.0859375 5.96875 0 5.6875 0 Z M 1.140625 -0.953125 L 5.515625 -0.953125 C 5.566406 -0.953125 5.609375 -0.96875 5.640625 -1 C 5.679688 -1.039062 5.703125 -1.085938 5.703125 -1.140625 L 5.703125 -3.609375 C 5.703125 -3.660156 5.679688 -3.707031 5.640625 -3.75 C 5.609375 -3.789062 5.566406 -3.8125 5.515625 -3.8125 L 1.140625 -3.8125 C 1.085938 -3.8125 1.039062 -3.789062 1 -3.75 C 0.96875 -3.707031 0.953125 -3.660156 0.953125 -3.609375 L 0.953125 -1.140625 C 0.953125 -1.085938 0.96875 -1.039062 1 -1 C 1.039062 -0.96875 1.085938 -0.953125 1.140625 -0.953125 Z M 1.140625 -0.953125 "/></g></g></g><g fill="#000000" fill-opacity="1"><g transform="translate(177.305669, 235.894947)"><g/></g></g><g fill="#000000" fill-opacity="1"><g transform="translate(184.166547, 235.894947)"><g><path d="M 0.09375 0 C 0.03125 0 0 -0.03125 0 -0.09375 L 0 -4.65625 C 0 -4.71875 0.03125 -4.75 0.09375 -4.75 L 5.6875 -4.75 C 5.96875 -4.75 6.195312 -4.65625 6.375 -4.46875 C 6.5625 -4.289062 6.65625 -4.0625 6.65625 -3.78125 L 6.65625 -2.875 C 6.65625 -2.59375 6.5625 -2.359375 6.375 -2.171875 C 6.195312 -1.992188 5.96875 -1.90625 5.6875 -1.90625 L 5.59375 -1.90625 L 6.265625 0 L 5.21875 0 L 4.546875 -1.90625 L 0.953125 -1.90625 L 0.953125 -0.09375 C 0.953125 -0.03125 0.921875 0 0.859375 0 Z M 0.953125 -2.859375 L 5.515625 -2.859375 C 5.566406 -2.859375 5.609375 -2.875 5.640625 -2.90625 C 5.679688 -2.945312 5.703125 -2.992188 5.703125 -3.046875 L 5.703125 -3.609375 C 5.703125 -3.660156 5.679688 -3.707031 5.640625 -3.75 C 5.609375 -3.789062 5.566406 -3.8125 5.515625 -3.8125 L 0.953125 -3.8125 Z M 0.953125 -2.859375 "/></g></g></g><g fill="#000000" fill-opacity="1"><g transform="translate(195.785316, 235.894947)"><g><path d="M 0.96875 0 C 0.6875 0 0.453125 -0.0859375 0.265625 -0.265625 C 0.0859375 -0.453125 0 -0.6875 0 -0.96875 L 0 -3.78125 C 0 -4.0625 0.0859375 -4.289062 0.265625 -4.46875 C 0.453125 -4.65625 0.6875 -4.75 0.96875 -4.75 L 6.5625 -4.75 C 6.625 -4.75 6.65625 -4.71875 6.65625 -4.65625 L 6.65625 -3.90625 C 6.65625 -3.84375 6.625 -3.8125 6.5625 -3.8125 L 1.140625 -3.8125 C 1.085938 -3.8125 1.039062 -3.789062 1 -3.75 C 0.96875 -3.707031 0.953125 -3.660156 0.953125 -3.609375 L 0.953125 -2.859375 L 6.109375 -2.859375 C 6.179688 -2.859375 6.21875 -2.828125 6.21875 -2.765625 L 6.21875 -2 C 6.21875 -1.9375 6.179688 -1.90625 6.109375 -1.90625 L 0.953125 -1.90625 L 0.953125 -1.140625 C 0.953125 -1.085938 0.96875 -1.039062 1 -1 C 1.039062 -0.96875 1.085938 -0.953125 1.140625 -0.953125 L 6.5625 -0.953125 C 6.625 -0.953125 6.65625 -0.921875 6.65625 -0.859375 L 6.65625 -0.09375 C 6.65625 -0.03125 6.625 0 6.5625 0 Z M 0.96875 0 "/></g></g></g><g fill="#000000" fill-opacity="1"><g transform="translate(207.404085, 235.894947)"><g><path d="M 0.09375 0 C 0.03125 0 0 -0.03125 0 -0.09375 L 0 -4.65625 C 0 -4.71875 0.03125 -4.75 0.09375 -4.75 L 5.6875 -4.75 C 5.96875 -4.75 6.195312 -4.65625 6.375 -4.46875 C 6.5625 -4.289062 6.65625 -4.0625 6.65625 -3.78125 L 6.65625 -2.875 C 6.65625 -2.59375 6.5625 -2.359375 6.375 -2.171875 C 6.195312 -1.992188 5.96875 -1.90625 5.6875 -1.90625 L 0.953125 -1.90625 L 0.953125 -0.09375 C 0.953125 -0.03125 0.921875 0 0.859375 0 Z M 0.953125 -2.859375 L 5.515625 -2.859375 C 5.566406 -2.859375 5.609375 -2.875 5.640625 -2.90625 C 5.679688 -2.945312 5.703125 -2.992188 5.703125 -3.046875 L 5.703125 -3.609375 C 5.703125 -3.660156 5.679688 -3.707031 5.640625 -3.75 C 5.609375 -3.789062 5.566406 -3.8125 5.515625 -3.8125 L 0.953125 -3.8125 Z M 0.953125 -2.859375 "/></g></g></g><g fill="#000000" fill-opacity="1"><g transform="translate(219.022854, 235.894947)"><g><path d="M 0.09375 0 C 0.03125 0 0 -0.03125 0 -0.09375 L 0 -3.78125 C 0 -4.0625 0.0859375 -4.289062 0.265625 -4.46875 C 0.453125 -4.65625 0.6875 -4.75 0.96875 -4.75 L 5.6875 -4.75 C 5.96875 -4.75 6.195312 -4.65625 6.375 -4.46875 C 6.5625 -4.289062 6.65625 -4.0625 6.65625 -3.78125 L 6.65625 -0.09375 C 6.65625 -0.03125 6.625 0 6.5625 0 L 5.796875 0 C 5.734375 0 5.703125 -0.03125 5.703125 -0.09375 L 5.703125 -1.90625 L 0.953125 -1.90625 L 0.953125 -0.09375 C 0.953125 -0.03125 0.921875 0 0.859375 0 Z M 0.953125 -2.859375 L 5.703125 -2.859375 L 5.703125 -3.609375 C 5.703125 -3.660156 5.679688 -3.707031 5.640625 -3.75 C 5.609375 -3.789062 5.566406 -3.8125 5.515625 -3.8125 L 1.140625 -3.8125 C 1.085938 -3.8125 1.039062 -3.789062 1 -3.75 C 0.96875 -3.707031 0.953125 -3.660156 0.953125 -3.609375 Z M 0.953125 -2.859375 "/></g></g></g><g fill="#000000" fill-opacity="1"><g transform="translate(230.641623, 235.894947)"><g><path d="M 0.09375 0 C 0.03125 0 0 -0.03125 0 -0.09375 L 0 -4.65625 C 0 -4.71875 0.03125 -4.75 0.09375 -4.75 L 0.859375 -4.75 C 0.921875 -4.75 0.953125 -4.71875 0.953125 -4.65625 L 0.953125 -0.09375 C 0.953125 -0.03125 0.921875 0 0.859375 0 Z M 0.09375 0 "/></g></g></g><g fill="#000000" fill-opacity="1"><g transform="translate(236.550932, 235.894947)"><g><path d="M 0.09375 0 C 0.03125 0 0 -0.03125 0 -0.09375 L 0 -4.65625 C 0 -4.71875 0.03125 -4.75 0.09375 -4.75 L 5.6875 -4.75 C 5.96875 -4.75 6.195312 -4.65625 6.375 -4.46875 C 6.5625 -4.289062 6.65625 -4.0625 6.65625 -3.78125 L 6.65625 -2.875 C 6.65625 -2.59375 6.5625 -2.359375 6.375 -2.171875 C 6.195312 -1.992188 5.96875 -1.90625 5.6875 -1.90625 L 5.59375 -1.90625 L 6.265625 0 L 5.21875 0 L 4.546875 -1.90625 L 0.953125 -1.90625 L 0.953125 -0.09375 C 0.953125 -0.03125 0.921875 0 0.859375 0 Z M 0.953125 -2.859375 L 5.515625 -2.859375 C 5.566406 -2.859375 5.609375 -2.875 5.640625 -2.90625 C 5.679688 -2.945312 5.703125 -2.992188 5.703125 -3.046875 L 5.703125 -3.609375 C 5.703125 -3.660156 5.679688 -3.707031 5.640625 -3.75 C 5.609375 -3.789062 5.566406 -3.8125 5.515625 -3.8125 L 0.953125 -3.8125 Z M 0.953125 -2.859375 "/></g></g></g></svg>